<?xml version="1.0" encoding="utf-8"?>
<svg viewBox="115.675 158.412 188.457 58.986" width="188.457" height="58.986" xmlns="http://www.w3.org/2000/svg">
  <path fill-rule="evenodd" clip-rule="evenodd" d="M 170.353 190.508 C 171.4 189.461 171.923 188.938 172.091 188.324 C 172.204 187.909 172.204 187.472 172.091 187.057 C 171.923 186.443 171.4 185.92 170.353 184.873 L 148.237 162.758 C 147.19 161.711 146.667 161.188 146.053 161.02 C 145.639 160.906 145.201 160.906 144.787 161.02 C 144.173 161.188 143.65 161.711 142.603 162.758 L 120.487 184.873 C 119.44 185.92 118.917 186.443 118.749 187.057 C 118.636 187.472 118.636 187.909 118.749 188.324 C 118.917 188.938 119.44 189.461 120.487 190.508 L 124.303 194.323 C 125.629 195.649 126.292 196.312 127.028 196.447 C 127.523 196.537 128.033 196.47 128.487 196.255 C 129.164 195.934 129.632 195.122 130.57 193.498 L 142.038 173.635 C 143.241 171.552 143.842 170.51 144.652 170.209 C 145.191 170.009 145.785 170.009 146.325 170.209 C 147.135 170.51 147.736 171.552 148.939 173.635 L 160.357 193.411 C 161.294 195.035 161.763 195.847 162.44 196.168 C 162.894 196.383 163.404 196.45 163.898 196.36 C 164.635 196.226 165.298 195.563 166.624 194.236 L 170.353 190.508 Z M 153.551 207.31 C 155.817 205.044 156.95 203.911 156.958 202.928 C 156.963 202.278 156.704 201.654 156.241 201.198 C 155.541 200.509 153.938 200.509 150.734 200.509 L 140.107 200.509 C 136.902 200.509 135.299 200.509 134.599 201.198 C 134.136 201.654 133.877 202.278 133.883 202.928 C 133.89 203.911 135.023 205.044 137.289 207.31 L 142.603 212.623 C 143.65 213.67 144.173 214.193 144.787 214.361 C 145.201 214.475 145.639 214.475 146.053 214.361 C 146.667 214.193 147.19 213.67 148.237 212.623 L 153.551 207.31 Z" fill="#BF2659"/>
  <path d="M 203.4 198.255 L 196.419 198.255 L 196.419 184.869 L 193.664 184.869 L 193.664 182.333 L 196.45 182.333 L 196.45 177.606 L 199.33 177.606 L 199.33 182.333 L 205.652 182.333 L 205.652 177.606 L 208.532 177.606 L 208.532 182.333 L 212.602 182.333 L 212.602 184.869 L 208.532 184.869 L 208.532 195.679 L 212.602 195.679 L 212.602 198.255 L 205.621 198.255 L 205.621 184.869 L 199.33 184.869 L 199.33 195.679 L 203.4 195.679 L 203.4 198.255 Z" fill="#002026"/>
  <path fill-rule="evenodd" clip-rule="evenodd" d="M 183.973 198.263 C 182.404 198.263 181.149 197.865 180.207 197.07 C 179.265 196.254 178.795 195.177 178.795 193.837 L 178.795 192.802 C 178.795 191.483 179.286 190.427 180.27 189.631 C 181.253 188.815 182.54 188.407 184.13 188.407 L 189.937 188.407 L 189.937 187.183 C 189.937 186.409 189.696 185.792 189.215 185.331 C 188.734 184.85 188.106 184.61 187.332 184.61 L 182.122 184.61 L 182.122 186.65 L 179.234 186.65 C 179.234 185.29 179.238 182.099 179.238 182.099 L 187.332 182.099 C 188.985 182.099 190.314 182.569 191.318 183.511 C 192.322 184.432 192.825 185.656 192.825 187.183 L 192.825 198.263 L 183.973 198.263 Z M 184.162 195.846 L 189.816 195.846 L 189.816 193.152 L 189.937 191.107 L 184.162 191.107 C 184.115 191.107 184.069 191.107 184.023 191.106 C 183.35 191.105 182.772 191.103 182.341 191.456 C 181.881 191.833 181.682 192.237 181.682 192.864 L 181.682 193.806 C 181.682 194.434 181.902 194.936 182.341 195.313 C 182.802 195.668 183.408 195.846 184.162 195.846 Z" fill="#002026"/>
  <path fill-rule="evenodd" clip-rule="evenodd" d="M 215.048 196.694 C 216.178 197.74 217.664 198.263 219.505 198.263 L 227.948 198.263 L 227.948 193.021 L 225.092 193.021 L 225.092 195.721 L 219.505 195.721 C 218.543 195.721 217.769 195.428 217.183 194.842 C 216.597 194.256 216.304 193.482 216.304 192.519 L 216.304 191.013 L 228.011 191.013 L 228.011 182.099 L 219.505 182.099 C 217.664 182.099 216.178 182.653 215.048 183.762 C 213.939 184.871 213.385 186.346 213.385 188.188 L 213.385 192.519 C 213.385 194.235 213.939 195.626 215.048 196.694 Z M 225.092 188.69 L 216.304 188.69 L 216.304 188.219 C 216.304 187.131 216.597 186.263 217.183 185.614 C 217.769 184.944 218.543 184.61 219.505 184.61 L 225.092 184.61 L 225.092 188.69 Z" fill="#002026"/>
  <path d="M 297.438 183.449 C 296.582 182.51 295.434 182.041 293.994 182.041 L 276.62 182.041 L 276.62 198.263 L 279.532 198.263 L 279.532 188.302 L 279.532 184.608 L 284.29 184.608 C 284.874 184.608 285.334 184.848 285.667 185.328 C 286.022 185.808 286.2 186.476 286.2 187.331 L 286.2 198.263 L 289.142 198.263 L 289.142 187.707 L 289.142 184.608 L 293.775 184.608 C 294.38 184.608 294.871 184.848 295.247 185.328 C 295.622 185.787 295.81 186.413 295.81 187.206 L 295.81 198.263 L 298.721 198.263 L 298.721 187.237 C 298.721 185.63 298.294 184.368 297.438 183.449 Z" fill="#002026"/>
  <path fill-rule="evenodd" clip-rule="evenodd" d="M 246.36 196.545 C 247.424 197.651 248.812 198.263 250.523 198.263 L 259.414 198.263 L 259.414 177.606 L 256.471 177.606 L 256.471 182.082 L 250.805 182.082 C 249.615 182.082 248.561 182.354 247.643 182.896 C 246.746 183.418 246.047 184.169 245.546 185.15 C 245.045 186.11 244.794 187.216 244.794 188.469 L 244.794 192.162 C 244.794 193.978 245.316 195.439 246.36 196.545 Z M 256.471 195.637 L 250.742 195.637 C 249.866 195.637 249.135 195.314 248.551 194.667 C 247.987 193.999 247.706 193.133 247.706 192.069 L 247.706 188.594 C 247.706 187.404 248.008 186.455 248.614 185.745 C 249.24 185.015 250.043 184.649 251.024 184.649 L 256.471 184.649 L 256.471 191.568 C 256.387 192.674 256.471 195.637 256.471 195.637 Z" fill="#002026"/>
  <path d="M 229.534 182.099 L 238.487 182.099 C 239.989 182.099 241.2 182.62 242.118 183.622 C 243.057 184.623 243.527 185.938 243.527 187.566 L 243.527 198.263 L 240.615 198.263 L 240.615 187.566 C 240.615 186.71 240.396 186.022 239.958 185.5 C 239.52 184.957 238.946 184.686 238.236 184.686 L 232.445 184.686 L 232.445 198.263 L 229.534 198.263 L 229.534 182.099 Z" fill="#002026"/>
  <path d="M 274.961 198.263 L 274.961 182.119 L 272.05 182.119 L 272.05 195.423 L 266.259 195.423 C 265.549 195.423 264.975 195.152 264.537 194.609 C 264.099 194.088 263.88 193.399 263.88 192.543 L 263.88 182.119 L 260.968 182.119 L 260.968 192.543 C 260.968 194.171 261.438 195.486 262.377 196.488 C 263.295 197.489 264.506 198.263 266.008 198.263 C 267.511 198.263 274.961 198.263 274.961 198.263 Z" fill="#002026"/>
</svg>